<?xml version="1.0" encoding="UTF-8"?>
<svg version="1.1" viewBox="0 0 2048 1350" width="1280" height="1280" xmlns="http://www.w3.org/2000/svg">
<path transform="translate(0)" d="m0 0h2048v1350h-2048z" fill="#5F59FE"/>
<path transform="translate(1212)" d="m0 0h836v1350h-477l1-2-8-2-47-1-3-1v-2l5-5 8-6 2-4v-53l-2-6-4-2-4 1-7-3-10-6-3-1h-12l-9 4h-2l-1 5-12 26-10 18-5 14v8l4 6 3 5-12-1-36-5-70-9-1-1 1-9 12-22 3-8-9 4-19 11-7 1 4-20 16-74 4-17-8 4-7 7-6 10-9 21-8 26-12 50-2 2-4-1-6-8-6-7v-5l2-5 3-23v-632l1-10 26 5 8 3 3 8 10 46 14 64 7 31 4 12 4 4 6 22 7 35 18 88 19 89 10 42 18 70 24 94 3 9 6 5 3 1h13l14-7 9-8 5-7-8-45-10-59-10-58-3-21-1-157h2l4 11 8 30 17 70 8 57 14 107 8 60 3 25 1 4 7-1 30-9 10-4 10-3 3-9 1-8v-30l-6-93-8-100-8-80-2-15-3-7-3-19-1-16v-34l-4-29-6-27-17-69-8-34-3-6-7-5-1-3v-10l2-15 5-6 24-10 15-6 13-7 1-4-5-19-8-24-14-34-14-30-10-16-7-8-12-5-28-9-22-6-5-5-12-13-21-12-4-9v-8l6-11 11-20 3-4 2-11v-20l-3-10-10-18 1-7-5-4-17-8-15-3-10-1 4-6 1-3-2-1h-9l-13 4-10 7-8 7-7 8-8 10-9 13-2 2-10 2v8l5-2v6l-9 3h-2l-3 3 13-1 1 1v14l1 9 12 22 8 10 12 12 5 4 4 7-1 5-14 15-9 7-27 15-19 11-10 5-4-1 1-4 8-4 1-4v-154l-8-3-1-2-1-90v-136l-2-13-5-15-8-14-8-10-10-8-14-8-19-8z" fill="#FDFDFD"/>
<path transform="translate(0)" d="m0 0h683l-4 3-15 6-14 8-10 8-8 9-8 14-5 15-2 13-1 34-1 66-2 4-3 2v47l5 3v43l-4 3-1 3v83l3 5 2 2v30l-4 3-1 3-1 87 6 2 1 3v480l-1 242-22 12-14 10-11 10-5 5-10 11-2 3h-2v-51l2-38 4-40 7-50 7-36 10-43 12-41-9 24-15 42-16 49-12 45-8 35-6 36-4 36-1 14v39l2 24v6l-6 3-74 14-31 4-20 2h-12l6-7 10-8 11-10 1-5-10-14-11-12-5-4-4 1-15 13-12 12-1 3 7 9 11 12 7 6 1 3-63 1h-67l-56-1v-52l-4-27-5-18-8-18-7-12-10-13-11-12-14-11-14-10-20-12-13-6-1 1-2 25v25l2 24v8l-16-2-19-3-47-1z" fill="#FDFDFD"/>
<path transform="translate(683)" d="m0 0h529l14 6 16 8 13 10 7 8 8 13 6 15 2 8 1 9v136l1 90 1 2 8 3v154l-2 5-8 4v3l6-1 16-9 21-12 19-11 10-9 10-11-1-6-5-7-8-7-10-10-9-14-8-15-1-14v-9h-13l1-3 4-2v2l8-3v-5l-4 1-1-6 3-3 9-3 10-14 8-10 10-11 10-8 10-5 8-2h9l3 2-2 4-3 4 20 3 13 5 11 6 3 3-1 7 6 11 6 12 1 5v20l-3 13-6 9-9 17-4 7v8l4 9 14 7 8 6 7 7 6 8 12 4 25 7 23 8 6 4 7 8 12 21 15 33 12 31 7 21 4 16-1 4-8 5-13 6-28 11-6 4-2 3-2 15v10l2 4 7 5 4 13 16 67 11 45 4 22 2 17v34l2 24 3 14 2 4 5 43 6 63 8 103 5 79v30l-3 16-5 3-33 11-17 5-5-1-3-19-8-64-12-90-10-74-6-27-17-69-6-19v-2h-2l1 16 1 141 3 21 8 46 11 65 7 40 2 12-9 10-9 7-11 5h-13l-6-3-5-6-8-30-9-36-16-62-14-55-10-44-22-104-13-64-7-35-6-19-3-2-5-16-14-63-13-61-5-20-8-3-21-4-5-2v642l-3 23-2 5 1 7 8 8 3 5 4-1 13-54 9-27 8-18 6-9 7-7 6-3h2l-1 8-16 74-6 27-1 2 9-3 18-11 5-2h3l-1 6-12 23-2 4v6l117 15-6-8-1-2v-8l6-16 9-16 9-19 5-12 11-5h12l10 5 6 4 7 1 2-1 5 4 1 5v53l-4 6-7 5-3 4h-2v2l50 1 9 3-2 2h-1571v-119h47l32 5 3 1-2-16-1-16v-25l2-25 2-2 17 8 22 14 13 10 13 11 10 11 12 17 9 19 6 18 4 23 1 9v39l-1 13h123l62-1-4-5-8-7-10-11-4-7 4-6 8-7 13-12 5-4 5 1 12 12 12 16 1 5-7 8-21 18h11l45-5 54-10 26-5 5-2-1-18-1-12v-39l3-34 5-36 7-34 11-44 10-34 14-42 14-39 8-22 1 4-12 41-11 47-7 38-6 44-4 40-2 38-1 51 5-5 9-10 12-12 15-11 16-9 8-4 1-242v-483l-6-2v-87l2-4 3-2v-30l-4-4-1-3v-83l2-4 3-2v-43l-5-3v-47l4-3 1-3 1-66 1-34 2-13 5-15 6-11 7-9 7-7 15-10 13-6zm25 45-11 2-12 5-12 9-9 12-4 8-3 11-1 199v842l1 135 3 19 5 12 9 10 12 9 7 3 10 2 121 1h138l232-1 15-4 11-7 9-9 6-12 4-11 1-14 1-497v-370l-1-300-2-16-6-12-9-11-10-8-11-5-10-2h-74l-7 2-1 14-5 13-8 12-7 6-7 3-6 1-33 1h-207l-20-1-9-2-8-4-6-5-6-10-3-7-3-19-1-3-4-1z" fill="#3F3C53"/>
<path transform="translate(708,45)" d="m0 0h69l4 1 3 17 3 10 5 9 4 5 7 5 8 3 6 1 20 1h207l33-1 9-2 9-6 7-9 7-14 1-4 1-14 7-2h74l13 3 11 6 10 9 9 13 3 7 2 16 1 300v48l-1 22-1 3-16 4-10 2-8 3-7 2-30 7-20 4-34 5-21 2h-48l-37-6-21-5-10-4-10-3-6-2v-2l-9-2-3-2-10-1-12 6-8 6-10 8-25 12-21 7-16 3-18 2h-43l-33-4-25-5-29-8-33-11-7-3-1-2-1-20-1-10v-164l1-199 4-14 8-12 6-7 14-9 11-4z" fill="#5F59FE"/>
<path transform="translate(935,991)" d="m0 0h13l26 1 29 3 29 5 36 9 27 9 9 4 5 1v2h5v2l7 1v2l7 2 19 8 19 10 21 12 19 13 16 12 16 13 1 1 1 21v150l-2 11-5 13-6 9-7 7-11 7-15 4-232 1h-138l-121-1-14-3-14-10-8-8-6-12-3-13-1-9v-87l1-73 2-8 13-12 16-12 27-18 20-12 23-12 20-9 25-9 34-10 37-9 18-3 19-2z" fill="#8B85FE"/>
<path transform="translate(1279,622)" d="m0 0 26 5 8 3 3 8 10 46 14 64 7 31 4 12 4 4 6 22 7 35 18 88 19 89 10 42 18 70 24 94 3 9 6 5 3 1h13l14-7 9-8 5-7-8-45-10-59-10-58-3-21-1-157h2l4 11 8 30 17 70 8 57 14 107 8 60 3 25 1 4 7-1 27-8 3 1-5 4-1 2h4l1 3-2 1-2-1 1 2 4 2v2l5 1 6 4 10 10 9 11 8 8 7 8 10 14 4 8 1 9-9 6-11 6h22l60 1h186l-1-11v-32l1-1h45l1 44 114 1v4h-477l1-2-8-2-47-1-3-1v-2l5-5 8-6 2-4v-53l-2-6-4-2-4 1-7-3-10-6-3-1h-12l-9 4h-2l-1 5-12 26-10 18-5 14v8l4 6 3 5-12-1-36-5-70-9-1-1 1-9 12-22 3-8-9 4-19 11-7 1 4-20 16-74 4-17-8 4-7 7-6 10-9 21-8 26-12 50-2 2-4-1-6-8-6-7v-5l2-5 3-23v-632z" fill="#FCFCFD"/>
<path transform="translate(928,1141)" d="m0 0h26l23 2 23 4 21 5 27 9 21 9 16 8 18 10 19 13 10 8 11 9 15 15 7 8 13 15 10 14 10 15 12 22 3 4-1 6-9 4-9 2-232 1h-138l-121-1-14-3-6-7 1-2h2l2-5 11-19 18-27 13-17 9-11 16-16 11-9 12-10 24-16 18-10 24-10 24-8 31-8 17-3z" fill="#AAA5FD"/>
<path transform="translate(82,1153)" d="m0 0 10 4 16 9 18 12 14 11 12 11 11 14 9 14 7 15 6 18 4 23 1 9v39l-2 18h-188v-119h47l32 5 3 1-2-16-1-16v-25l2-25z" fill="#5F59FE"/>
<path transform="translate(931,1214)" d="m0 0h27l17 2 18 4 17 6 23 11 19 12 13 10 10 9 11 12 10 13 6 10 3 13 3 4 3 2-21 1h-188l-114-1 1-5 7-16 10-14 8-10 12-13 8-8 14-11 14-9 16-8 19-7 20-5z" fill="#C2BCFD"/>
<path transform="translate(1478,888)" d="m0 0h2l4 11 8 30 17 70 8 57 14 107 8 60 3 25 1 4 7-1 27-8 3 1-5 4-1 2h4l1 3-2 1-2-1 1 2 4 2v2l5 1 6 4 10 10 9 11 8 8 7 8 10 14 4 8 1 9-9 6-11 6h22l60 1h186l-1-11v-32l1-1h45l1 44 114 1v4h-477l1-2-8-2-47-1-3-1v-2l5-5 8-6 2-4v-53l-2-6-4-2-4 1-7-3-10-6-3-1h-13l2-5h-17v-1l11-1 14-7 9-8 5-7-8-45-10-59-10-58-3-21z" fill="#F9F9FD"/>
<path transform="translate(789,417)" d="m0 0h39l7 2 15 2 18 5 12 3 9 4 7 3 6 2v2l5 1 9 4v2l5 1 2 1v2l5 2 5 3 6 2 7-1 24-8 26-6 37-5 11-1h43l30 2 18 2 42 5 17 3 2 1 9 1 1 1 10 1 9 4 1 4h-12l-23-2-9-2-54-8-28-3-14-1h-47l-27 3-25 5-18 5v3l7 3 6 1 26 1 53 3 61 1h61l24-1 26-5 6-1v9l-16 4-10 2-8 3-7 2-30 7-20 4-34 5-21 2h-48l-37-6-21-5-10-4-10-3-6-2v-2l-9-2-10-5-10-2-25 1-14 4-9 4-26 5-14 1h-28l-51-2-23-2-22-3v-2l-16-3-3-2 8-2 93-1 18-4h6v-2l-11-1v-2h-45l-73-1-13-2h-8l-6 2-10 1-1-1v-5l3-3 19-7 9-4 29-9 26-6 2-1 15-2 9-2z" fill="#8C86FD"/>
<path transform="translate(1382,267)" d="m0 0h9l3 2-2 4-3 4 20 3 13 5 11 6 3 3-1 7 6 11 6 12 1 5v20l-3 13-6 9-9 17-4 7v8l4 9 3 2-1 1 3 7 11 13 2 1v2l4 2 2 2-2 1-4 7-8 9-10 13-11 13-8 11-4-2-8-11-11-18-16-26-8-14-2-3-3-9-4-5-8-7-10-10-9-14-8-15-1-14v-9h-13l1-3 4-2v2l8-3v-5l-4 1-1-6 3-3 9-3 10-14 8-10 10-11 10-8 10-5z" fill="#FCB5B8"/>
<path transform="translate(1566,607)" d="m0 0 4 1 7 34 14 58 7 35 6 37 2 22 1 19v26l-2 28-4 22-4 8-7 8-3 2h-6l-2-9-3-10-2-14-1-16v-34l-4-29-6-27-17-69-8-34-3-6-7-5-1-3v-10l2-15 5-6 24-10z" fill="#FCB5B8"/>
<path transform="translate(794,418)" d="m0 0h33l23 3 18 5 12 3 9 4 7 3 6 2v2l5 1 9 4v2l5 1 2 1v2l5 2 5 3 6 2 7-1 24-8 26-6 37-5 11-1h43l30 2 18 2 42 5 17 3 2 1 9 1 1 1 10 1 9 4 1 4h-12l-23-2-9-2-54-8-28-3-14-1h-47l-27 3-25 5-18 5v3l7 3 6 1 26 1 53 3 61 1h61l24-1 26-5 6-1v9l-16 4-10 2-8 3-7 2-30 7-20 4-34 5-21 2h-48l-37-6-21-5-10-4-10-3-6-2v-2l-9-2-13-7-17-11-16-9-16-8-20-8-17-5-22-4-17-3-15-1-5-1z" fill="#ABA6FD"/>
<path transform="translate(676,455)" d="m0 0h8l13 2 73 1 45 1v2h14l-3 1v2l-24 5-93 1-6 1 5 2 12 3v2l16 1 17 2 36 2 29 1h29l17-2 20-4 13-5 10-3 25-1 12 3 2 2h-7l-12 6-8 6-10 8-25 12-21 7-16 3-18 2h-43l-33-4-25-5-29-8-33-11-7-3-1-2v-20l2-3-1-4 11-1z" fill="#7C74FE"/>
<path transform="translate(82,1153)" d="m0 0 10 4 16 9 18 12 14 11 12 11 11 14 9 14 7 15 6 18 4 23 1 9v39l-2 4-3-7-16-24-10-14-11-13-12-12-15-11-14-8-19-8-5-3-2-7-2-24v-25l2-25z" fill="#403D54"/>
<path transform="translate(1279,622)" d="m0 0 26 5 8 3 3 8 10 46 14 64 7 31 4 12 4 4 6 22 4 21v5l-5-5-9-7-9-10-18-22-12-16-9-16-8-20-7-21-4-15-2-2-2-9-2-4v-64z" fill="#FBB5B9"/>
<path transform="translate(1382,267)" d="m0 0h9l3 2-2 4-3 4 20 3 13 5 11 6 3 3-1 7 6 11 6 12 1 5v20l-3 13-5 6-2-3v-11l-2-10-10-6-9-8-5-1-7 3-7-1-1 3-5 3-10-1-15-6-4-1-21 13-6 7-8 14-3 6-3-3-2-4-1-14v-9h-13l1-3 4-2v2l8-3v-5l-4 1-1-6 3-3 9-3 10-14 8-10 10-11 10-8 10-5z" fill="#3F3C53"/>
<path transform="translate(1573,1258)" d="m0 0h7l10 5 11 11 9 11 8 8 7 8 10 14 4 8 1 9-9 6-10 5-6 2-11 1h-18l-14-2-9-5-18-6-6-4-5-3-1-1v-12l5-33 2-5 3-2h10l10-11z" fill="#3F3C53"/>
<path transform="translate(1039,444)" d="m0 0h47l26 2 51 7 26 4 2 1 35 3-2-4-2-2 8 1 9 3 1 1v9h-1v-6l-6 2-26 5-24 1h-64l-58-1-73-4h-8l-10-3-3-5 16-5 22-5 25-3z" fill="#8B85FE"/>
<path transform="translate(0,1239)" d="m0 0 5 5 14 26 12 17 11 13 14 14 2 1v2l5 2 10 7 17 8 13 7 1 2 6 2v1h-19l-40-1v5h-51z" fill="#FCFCFD"/>
<path transform="translate(1560,761)" d="m0 0 1 3h2l6 26 4 25 1 9v34l2 24 3 14 2 4 5 43 6 63 8 103 5 79v30l-3 16-5 3-4-1 2-1v-4l3 1 1-5h-7v-3l-2-1 1-12 1-23-1-3-1-15 1-3 4-2-2-11-1-9v-5l-3 2-2-8v-15l-1-13 1-20 2-3v-8l-3-6 2-6 1-16 1-7-3-1-1-8h-4l-2-5-3-27 1-12h3l2 7h1l-1-10-6-2-2-16 3 1 2 4 2-4v-2h-2v-3l-5 1-2-3-1-10v-12l2-12 1-2v-10l1-11-3-12-3-9-3-6v-9l-4-2 1-7v-8l-1-6-1-8 1-11h-2v-5l1-1v-16l-2-10-2-7v-12l2-9z" fill="#2E2B46"/>
<path transform="translate(1888,1301)" d="m0 0h45l1 44 114 1v4h-433l-1-2 10-3h264l-1-11v-32z" fill="#3E3B53"/>
<path transform="translate(794,418)" d="m0 0h33l23 3 18 5 12 3 9 4 7 3 6 2v2l5 1 9 4v2l5 1 2 1v2l5 2 17 10 16 8 17 7 16 4 24 5 19 3h58l24-2 26-4 21-5 20-3 19-5 17-4h4v-2l13-2v9l-16 4-10 2-8 3-7 2-30 7-20 4-34 5-21 2h-48l-37-6-21-5-10-4-10-3-6-2v-2l-9-2-13-7-17-11-16-9-16-8-20-8-17-5-22-4-17-3-15-1-5-1z" fill="#C1BBFD"/>
<path transform="translate(613,1231)" d="m0 0h2l1 28 2 20 5 17 7 12v3l-20 3-44 5h-10v-6l10-21 9-14 8-11 16-20 8-9z" fill="#FBFAFD"/>
<path transform="translate(911,482)" d="m0 0 5 1-1 4-16 8-26 11-19 5-21 3h-43l-35-6-23-5-22-6-6-4-1-3 4-3 3-1h15l38 6 7 2 12 1h48l23-3 31-5 21-3z" fill="#5F59FE"/>
<path transform="translate(774,420)" d="m0 0h8l-2 4-39 9-37 11h-3v2l-10 4h8l5-2 16-1 47-1h33l27 1 11 1 10 4 27 3 8 5 1 5-15-1-38-3-16-1-45-1-73-1-13-2h-8l-6 2-10 1-1-1v-5l3-3 19-7 9-4 29-9 26-6 2-1z" fill="#ABA6FD"/>
<path transform="translate(1373,855)" d="m0 0 4 2 3 7 3 17 4 1 4 7-1 4-2-1 1 4h2l3 6 1 6 3 8 4 18h-2l-1 4 3 7 1 7 4 1 3 11 1 8-1 5 2 7h-2l-1 2 6 1-1 4-3 1 2 7-1 5h2l2 6 2 2-1 14-1 5h-2l1 3 4-2 4-1v25l-3-1 2 4v8l2 11 3 6 1 15 5 21-2 2-6-23-6-20-3-14-4-14-5-25-3-11-3-16-4-17-1-5-2-15h-2l-1-3-2-1-11-52v-6l1-6-5-22-1-8z" fill="#2C2945"/>
<path transform="translate(1706,1007)" d="m0 0h12l7 3 8 7 4 7 1 4v10l-4 10-9 9-9 4h-15l-8-4-6-8-3-8-1-11 3-10 7-8 9-4z" fill="#FBFAFD"/>
<path transform="translate(1560,761)" d="m0 0 1 3h2l6 26 4 25 1 9v34l2 24 3 14 2 4 5 43 6 63v13h-1l-2-10v-12l-3 13-1 5-2 2-2-8h-2l-2-10 1-12h3l2 7h1l-1-10-6-2-2-16 3 1 2 4 2-4v-2h-2v-3l-5 1-2-3-1-10v-12l2-12 1-2v-10l1-11-3-12-3-9-3-6v-9l-4-2 1-7v-8l-1-6-1-8 1-11h-2v-5l1-1v-16l-2-10-2-7v-12l2-9z" fill="#2D2A46"/>
<path transform="translate(943,1258)" d="m0 0h12l12 6 5 6 3 7v11l-5 10-7 7-7 3h-14l-10-5-6-8-2-6v-13l5-8 7-7z" fill="#FEFEFE"/>
<path transform="translate(1891,1303)" d="m0 0h37l2 1 1 22v19h-40l-1-1v-40z" fill="#FBFBFD"/>
<path transform="translate(889,42)" d="m0 0h61l25 1 3 3v14l-3 1h-86l-4-2-1-11 2-4z" fill="#F9F9FD"/>
<path transform="translate(378,1288)" d="m0 0 4 2 8 7 10 13 4 7-2 4-23 23-4-1-7-8-10-11-6-8 2-5 7-8 10-9h2v-2z" fill="#F9F9FD"/>
<path transform="translate(794,418)" d="m0 0h33l23 3 18 5 12 3 9 4 7 3 6 2v2l5 1 9 4v2l5 1 2 1v2l5 2 17 10 16 8 25 10 15 5 1 4 15 3 14 3v1h-12l-29-6-16-6-7-2-6-2v-2l-9-2-13-7-17-11-16-9-16-8-20-8-17-5-22-4-17-3-15-1-5-1z" fill="#FAFAFD"/>
<path transform="translate(591,969)" d="m0 0 1 4-12 41-11 47-4 21h-2l-3 10-4 16-3 7-3 9-4 10-3 5-2 5-4 8-2 5h-1v-7l11-44 10-34 14-42 14-39z" fill="#2E2B46"/>
<path transform="translate(1067,438)" d="m0 0h15l35 1 18 2 42 5 17 3 2 1 9 1 1 1 10 1 9 4 1 4h-12l-23-2-9-2-54-8-28-3-1-1-25-2-9-2z" fill="#BDB8FD"/>
<path transform="translate(1131,450)" d="m0 0h11l47 7 2 1 15 1 7 2v2l-10 1-14 1-11 2h-32l-17-1-20-4-2-1v-2l13-3 8-2z" fill="#7C74FE"/>
<path transform="translate(688,492)" d="m0 0 8 1 25 6 23 6 40 7 6 1h43l26-4 25-7h2v3l-20 7-12 3-25 3h-43l-33-4-25-5-29-8-16-5v-2l5-1z" fill="#8882FE"/>
<path transform="translate(1530,1297)" d="m0 0h1l1 17h1l1 11 5 3 8 5 19 6 6 4 14 2h18l11-1 5-1 1 1h21v1l-18 1-9 3v1h-44l1-2-8-2-47-1-3-1v-2l5-5 8-6 2-4z" fill="#EFEEFD"/>
<path transform="translate(774,420)" d="m0 0h8l-2 4-39 9-37 11-23 8-12 5-9 2-1-1v-5l3-3 19-7 9-4 29-9 26-6 2-1z" fill="#F4F4FD"/>
<path transform="translate(1706,1007)" d="m0 0h12l7 3 8 7 4 7 1 4v10l-4 10-9 9-9 4h-15l-8-4-6-8-3-8-1-11 3-10 7-8 9-4zm-2 5-10 4-5 6-1 2v15l3 7 7 8 9 4h7l10-5 5-4 3-5 1-4v-9l-4-11-5-5-7-3z" fill="#403D55"/>
<path transform="translate(1044,437)" d="m0 0h43l16 1v1h-35l6 3 25 2v1h-60l-27 3-25 5-8 1 3-2 4-1v-3l-2-2 12-3 37-5z" fill="#A7A2FE"/>
<path transform="translate(1577,1243)" d="m0 0 3 1-5 4-1 2h4l1 3-2 1-2-1 1 2 4 2v1l-11 2-8 5-8 9h-10l-4 2 1-6 3-8v-9z" fill="#F7B3BB"/>
<path transform="translate(1620,1298)" d="m0 0 4 2 10 13 5 10 1 9-9 6-7-1-5-3-5-4 1-5 4-8 3-2-2-11z" fill="#2E2B47"/>
<path transform="translate(1438,314)" d="m0 0 4 2 4 5 2 8v20l-3 13-5 6-2-3v-11l-2-10-7-4-5-7 8-4 5-4 2-6z" fill="#2E2B46"/>
<path transform="translate(1503,1237)" d="m0 0 1 2 7 2 4 9 3 6-1 8 6 1-1 2-7-1-13-8-3-1h-13l2-5h-17v-1l11-1 14-7z" fill="#F4B2BD"/>
<path transform="translate(688,492)" d="m0 0 8 1 25 6 23 6v2l8 1v2l4 2v2l-14-2-26-6-33-10v-2l5-1z" fill="#8983FE"/>
<path transform="translate(1431,468)" d="m0 0v3l-12 14-8 11-4-2-8-11-3-5v-3l16-2 12-2z" fill="#FAF8FB"/>
<path transform="translate(789,417)" d="m0 0h39l4 2-38-1v2l20 1 34 6v1l-11-1-18-2h-22l-26 3-25 5-8 1 3-2 39-9 1-2-19 1 3-2z" fill="#BAB5FD"/>
<path transform="translate(1320,338)" d="m0 0 7 1 6 3 2 2v7l-6 10-4 8-3-3-2-4-1-14z" fill="#2E2B47"/>
<path transform="translate(53,1344)" d="m0 0 44 1 25 3 6 1v1h-77v-5z" fill="#403D54"/>
<path transform="translate(999,43)" d="m0 0 9 2 4 4v7l-5 4-11 1-4-4v-7l3-5z" fill="#F4F3FC"/>
<path transform="translate(1173,446)" d="m0 0 16 2 7 2 9 1 1 1 10 1 9 4 1 4h-12l-23-2v-1h11v-2l-23-4-4-3h6l1-1-9-1z" fill="#A9A4FD"/>
<path transform="translate(1523,1265)" d="m0 0 5 3 1 1v32l-2-3-3-12-5-1v-3l-3-2v-9l2-3-2-1z" fill="#2D2A46"/>
<path transform="translate(980,447)" d="m0 0h8l-2 1v3l-11 4-26 7 1 4-5-2-10-6 2-1 7 1 26-9z" fill="#BEB8FD"/>
<path transform="translate(1618,1343)" d="m0 0 3 1h21v1l-18 1-9 3v1h-44l1-2-6-1 4-2 6-1 10 1h18l11-1z" fill="#8B85F1"/>
<path transform="translate(1060,1009)" d="m0 0h8l27 9 9 4 5 1v2h5v2l7 1v2l7 2 16 7 1 3-9-3-36-15-25-9-15-5z" fill="#A39DFE"/>
<path transform="translate(1957,1346)" d="m0 0h91v3h-36l-56-1z" fill="#33304A"/>
<path transform="translate(1888,1301)" d="m0 0h45v40l-2-4-1-11v-22h-41v6h-1z" fill="#302D48"/>
<path transform="translate(1431,414)" d="m0 0 5 1 2 1 2 5 1 3 4 1v2l4 2 2 2v4l5 1 4 5v2l-8-2-4-3v-2l-4-2-11-13z" fill="#2F2C47"/>
<path transform="translate(1536,1201)" d="m0 0h1l4 26 3 4 1 9 2 5 10 3-1 2-9 3-5-1-3-19-3-25z" fill="#403D54"/>
<path transform="translate(187,1332)" d="m0 0 2 4v9l-1 5h-52l1-2 5-1 26-1h17l1-1z" fill="#8982FE"/>
<path transform="translate(1537,1186)" d="m0 0h2l2 8 1 13v6l2 1 1 10-1 6-4-3-4-26v-12z" fill="#2C2945"/>
<path transform="translate(1382,267)" d="m0 0h9l3 2-2 4-3 2-10-1-9 2-5 2-1-1-2 4-2-4 11-7z" fill="#2F2C47"/>
<path transform="translate(1236,466)" d="m0 0h2l-1 4-6 3-8 3-10 2-8 3-7 2-4 1h-8l3-2 22-7 24-8z" fill="#F8F8FD"/>
<path transform="translate(378,1285)" d="m0 0 5 1 12 12 11 15-1 3-1-3-4-1-8-11-8-9-7-4z" fill="#322F49"/>
<path transform="translate(1544,1230)" d="m0 0 3 3 1 6 6 1 1 1 2-7h2l1 4-1 4v5l-1 1-9-1-4-4-2-11z" fill="#2C2945"/>
<path transform="translate(744,506)" d="m0 0 11 1 35 6v1h-21l-17-3-4-2 1-1-5-1z" fill="#7C74FF"/>
<path transform="translate(1626,1309)" d="m0 0 5 5 3 5 2 1 4 6v6l-9 6-2-1 4-6v-9l-5-4-3-8z" fill="#35324B"/>
<path transform="translate(1037,1159)" d="m0 0 8 1 22 9 4 2v2l6 2-3 1-34-14z" fill="#BCB6FD"/>
<path transform="translate(376,1287)" d="m0 0 2 2-3 3h-2v2l-11 9-8 9-1 2h-2l4 8-3-1-4-7 4-6 8-7 13-12z" fill="#3F3C53"/>
<path transform="translate(1173,446)" d="m0 0 16 2 7 2 9 1v1l-7 1v1l-14-1-9-3v-1h6l1-1-9-1z" fill="#A59FFE"/>
<path transform="translate(1530,1131)" d="m0 0 2 4 3 16 2 3-1 16-2-3-4-23z" fill="#2C2945"/>
<path transform="translate(1387,914)" d="m0 0 2 2 3 9 5 1-2 6v3l2 1-2 4v7l-2 1-3-17-3-11z" fill="#403D54"/>
<path transform="translate(2023,1346)" d="m0 0h25v3h-36v-2z" fill="#2C2945"/>
<path transform="translate(1481,889)" d="m0 0h3l2 4 3 5 1 12 1 4-2 2v-3h-2l-6-21z" fill="#2F2C47"/>
<path transform="translate(1579,1009)" d="m0 0h2l3 6h1v8h1v8h-4l-2-5z" fill="#2C2945"/>
<path transform="translate(1394,948)" d="m0 0 2 3 3 9 2 3 4-2-1 4-2 2-1 10-2-1-4-16z" fill="#403D54"/>
<path transform="translate(1529,638)" d="m0 0 3 3 3 16-5-1-3-5v-10z" fill="#F7EFF6"/>
<path transform="translate(402,1313)" d="m0 0h2l1 2 2-1 1 5-7 8-14 12-2-1 19-19z" fill="#403D56"/>
<path transform="translate(1587,963)" d="m0 0h1l4 43v13h-1l-2-10v-12l-2-5v-3h2l-2-15z" fill="#403D54"/>
<path transform="translate(676,455)" d="m0 0h8l13 2v1l-14 1-7 1-5 1-8-2v-1l10-2z" fill="#8D87FD"/>
<path transform="translate(187,1332)" d="m0 0 2 4v9l-1 5h-15v-2l-2-1 14-1 1-1z" fill="#8179FE"/>
<path transform="translate(1262,1311)" d="m0 0h6l2 3-1 5h-8l-2-1 1-5z" fill="#F1F0FD"/>
<path transform="translate(1587,996)" d="m0 0 1 4-2 13-3 4-3-9 3-10 2 3z" fill="#403D54"/>
<path transform="translate(776,424)" d="m0 0 10 1v1l-27 4-17 4-4-1 29-7z" fill="#B8B3FD"/>
<path transform="translate(591,969)" d="m0 0 1 4-8 27-3-1 3-11z" fill="#38354E"/>
<path transform="translate(1887,1302)" d="m0 0 3 2v22l-3 1z" fill="#3B3850"/>
<path transform="translate(1585,943)" d="m0 0h1l1 10v9h-1l-1-7-4 1-1 2-1-5 2-3 1-6 2 1z" fill="#403D54"/>
<path transform="translate(1626,1309)" d="m0 0 5 5 3 5 2 1 1 4-2 7h-1l-1-9-5-4-3-8z" fill="#403D54"/>
<path transform="translate(1464,1299)" d="m0 0 3 2-4 6-4 1-1 2-2-2-1-3 1-2 7-2z" fill="#2D2A45"/>
<path transform="translate(1530,1297)" d="m0 0h1l1 17h1l1 12-4 1z" fill="#948EFD"/>
<path transform="translate(1581,907)" d="m0 0h1l3 26v10h-1l-1-9-2-1z" fill="#403D54"/>
<path transform="translate(1184,458)" d="m0 0 15 1 3 2-1 1h-11l-6-3z" fill="#5F59FE"/>
<path transform="translate(354,1307)" d="m0 0h2l-2 5-1 2h-2l4 8-3-1-4-7 4-6z" fill="#322F49"/>
<path transform="translate(1382,892)" d="m0 0 3 3 2 13v6h-1l-4-16-1-5z" fill="#403D54"/>
<path transform="translate(1319,327)" d="m0 0h1v6l-9 3-1-3 4-1 1-3z" fill="#9B95FD"/>
<path transform="translate(495,1329)" d="m0 0h7l-2 2-16 3-2-1 3-2z" fill="#322F49"/>
<path transform="translate(1476,1038)" d="m0 0h1v16h-4l-1-2 3-8z" fill="#2D2A45"/>
<path transform="translate(1202,478)" d="m0 0m-4 1h4v2l-8 3h-8l3-2z" fill="#F2F1FD"/>
<path transform="translate(1586,1203)" d="m0 0h1l1 6-4 11-2-1 2-12z" fill="#2C2945"/>
<path transform="translate(82,1153)" d="m0 0 10 4-1 2h-6l-3 2z" fill="#302D48"/>
<path transform="translate(1385,930)" d="m0 0 2 1 1 4v8l-2 1-2-9z" fill="#3D3A52"/>
<path transform="translate(1597,1212)" d="m0 0h2l-1 5-1 7-3-2 1-7z" fill="#403D54"/>
<path transform="translate(658,454)" d="m0 0h1l1 7v3l-3 1-1-9z" fill="#6C66FE"/>
<path transform="translate(1527,1092)" d="m0 0h1v11l-2 1-1-4v-7z" fill="#2C2945"/>
<path transform="translate(672,1091)" d="m0 0 2 1-4 5-5 1 4-6z" fill="#A7A2FE"/>
</svg>
